<svg enable-background="new 0 0 1073.8 320.2" viewBox="0 0 1073.8 320.2" xmlns="http://www.w3.org/2000/svg"><g fill="#fff"><path d="m160.1 0c-88.4 0-160.1 71.7-160.1 160.1s71.7 160.1 160.1 160.1 160.1-71.7 160.1-160.1-71.7-160.1-160.1-160.1zm10.1 160.1v.7.1c.3 3.5-1.3 7-4.3 9.1l-94.9 65.6c-4.6 3.2-10.9 2-14-2.6-3.2-4.6-2-10.9 2.6-14l90.5-62.6v-111.6c0-5.6 4.5-10.1 10.1-10.1s10.1 4.5 10.1 10.1v115.3z"/><path d="m385.7 46.6 36.7 155.6v-155.6h22.1v225.6h-22.6l-41.8-165.9v165.9h-22.1v-225.6z"/><path d="m557.3 231.1c0 7.1-1.1 13.5-3.4 19s-5.5 10.3-9.5 14.2c-4.1 3.9-8.8 6.9-14.2 8.9s-11.2 3-17.3 3c-6.2 0-12.1-1-17.5-3s-10.1-5-14.1-8.9c-3.9-3.9-7.1-8.7-9.4-14.2s-3.4-11.9-3.4-19v-143.2c0-7.1 1.1-13.5 3.4-19s5.4-10.2 9.4-14.1c3.9-3.9 8.6-6.8 14.1-8.9 5.4-2.1 11.3-3.2 17.5-3.2 6.1 0 11.8 1.1 17.3 3.2 5.4 2.1 10.2 5.1 14.2 8.9 4.1 3.9 7.2 8.6 9.5 14.1s3.4 11.9 3.4 19zm-63.7-.4c0 6.5 1.8 11.5 5.4 14.8 3.6 3.4 8.2 5.1 14 5.1 5.7 0 10.3-1.7 14-5.1 3.6-3.4 5.4-8.3 5.4-14.8v-142.5c0-6.5-1.8-11.4-5.4-14.8s-8.2-5.1-14-5.1c-5.7 0-10.3 1.7-14 5.1-3.6 3.4-5.4 8.3-5.4 14.8z"/><path d="m609 46.6 36.7 155.6v-155.6h22.1v225.6h-22.6l-41.8-165.9v165.9h-22.1v-225.6z"/><path d="m733.2 42.6c13.1 0 23.3 4 30.7 12.1s11 18.7 11 32v8.1h-23.4v-6c0-6.5-1.7-11.7-5-15.6s-7.9-5.8-13.8-5.8c-6.8 0-11.8 2.4-15 7.1s-4.8 10.4-4.8 17.1c0 5.5 1 10.8 2.9 15.7 2 4.9 4.7 10 8.4 15.4 2.4 3.6 5.4 7.9 9 12.7s7.3 9.8 11 15.2c3.8 5.3 7.4 10.5 10.9 15.6s6.5 9.8 9.1 14c4.2 7.1 7.3 13.8 9.3 20.1s2.9 13.6 2.9 21.9c0 16.7-3.5 29.9-10.5 39.6s-18 14.5-32.8 14.5c-7.2 0-13.5-1.1-19.2-3.4-5.6-2.3-10.3-5.4-14.2-9.3s-6.9-8.6-9-14-3.2-11.2-3.2-17.3v-12.1l23.4 6.3v5.5c0 5.4 1.8 10.1 5.4 14.1s8.6 6 15 6c7 0 12.2-2.3 15.6-6.9s5.1-11.2 5.1-19.6c0-5.2-.8-10.5-2.3-15.9s-4.4-11.3-8.4-17.9c-2-3.3-4.6-6.9-7.6-10.9s-6.2-8.3-9.5-12.7-6.6-8.9-9.8-13.4-6.1-8.9-8.7-13.1c-6.2-10.4-10.5-19.5-12.8-27.5s-3.4-15.6-3.4-22.9c0-15 4-26.8 12-35.6 7.8-8.7 18.5-13.1 31.7-13.1z"/><path d="m860.4 46.6v25.6h-24.3v200h-25.4v-199.9h-24.3v-25.7z"/><path d="m962 231.1c0 7.1-1.1 13.5-3.4 19s-5.5 10.3-9.5 14.2c-4.1 3.9-8.8 6.9-14.2 8.9s-11.2 3-17.3 3c-6.2 0-12.1-1-17.5-3s-10.1-5-14.1-8.9c-3.9-3.9-7.1-8.7-9.4-14.2s-3.4-11.9-3.4-19v-143.2c0-7.1 1.1-13.5 3.4-19s5.4-10.2 9.4-14.1c3.9-3.9 8.6-6.8 14.1-8.9 5.4-2.1 11.3-3.2 17.5-3.2 6.1 0 11.8 1.1 17.3 3.2 5.4 2.1 10.2 5.1 14.2 8.9 4.1 3.9 7.2 8.6 9.5 14.1s3.4 11.9 3.4 19zm-63.7-.4c0 6.5 1.8 11.5 5.4 14.8 3.6 3.4 8.2 5.1 14 5.1 5.7 0 10.3-1.7 14-5.1 3.6-3.4 5.4-8.3 5.4-14.8v-142.5c0-6.5-1.8-11.4-5.4-14.8s-8.2-5.1-14-5.1c-5.7 0-10.3 1.7-14 5.1-3.6 3.4-5.4 8.3-5.4 14.8z"/><path d="m1030.8 46.6c13.3 0 23.7 4.2 31.4 12.7 7.7 8.4 11.6 21.5 11.6 39.2v32.8c0 17.7-3.9 30.7-11.6 39.2-7.7 8.4-18.2 12.7-31.4 12.7h-19.3v89h-25.4v-225.6zm-19.4 111h17.4c13.3 0 19.9-8.1 19.9-24.5v-36.3c0-16.4-6.6-24.5-19.9-24.5h-17.4z"/></g></svg>