<svg enable-background="new 0 0 512 512" viewBox="0 0 512 512" xmlns="http://www.w3.org/2000/svg"><g fill="#fff"><path d="m61.5 279.6c-1-8.2-1.5-16.4-1.5-23.6 0-107.4 88.6-196 196-196 50.1 0 97 20.2 131.5 51.7l-17.3 17.6c-3.9 3.9-5.4 9.6-3.9 15 1.8 5.1 6 9 11.4 10.2 3 .6 102.2 32.6 95.9 31.3 8 2.7 19.9-5.9 17.7-17.7-.6-3-22.6-113.2-21.3-106.9-1.2-5.4-5.1-9.9-10.5-11.4-5.1-1.5-10.8 0-14.7 3.9l-14.7 14.4c-45.3-42.3-107.5-68.1-174.1-68.1-140.7 0-256 115.3-256 256v.6c0 8.5.4 15 .8 20 .6 6.6 5.5 12.1 12 13.4l30.8 6.2c10.1 1.9 19.1-6.5 17.9-16.6z"/><path d="m499.2 222-30.9-6.3c-10-2-19.1 6.4-17.9 16.5 1.1 8.8 1.5 17.3 1.5 23.8 0 107.4-88.6 196-196 196-50.1 0-97-20.2-131.5-52l17.3-17.3c3.9-3.9 5.4-9.6 3.9-15-1.8-5.1-6-9-11.4-10.2-3-.6-102.2-32.6-95.9-31.3-5.1-.9-10.2.6-13.5 4.2-3.6 3.3-5.1 8.7-4.2 13.5.6 3 22.6 112.2 21.3 105.9 1.2 5.4 5.1 9.9 10.5 11.4 6.3 1.6 11.5-.3 14.7-3.9l14.4-14.4c45.4 42.3 107.6 69.1 174.5 69.1 140.7 0 256-115.3 256-256v-.9c0-6.6-.2-13.2-.8-19.7-.6-6.6-5.4-12-12-13.4z"/></g></svg>